<svg width="20" height="20" viewBox="0 0 20 20" fill="none" xmlns="http://www.w3.org/2000/svg">
<path d="M19.375 18.8281H14.9609V12.4609H16.25C16.5736 12.4609 16.8359 12.1986 16.8359 11.875C16.8359 11.5514 16.5736 11.2891 16.25 11.2891H15.8984V5.58594H16.25C16.5736 5.58594 16.8359 5.32359 16.8359 5V1.75781C16.8359 0.788555 16.0474 0 15.0781 0H4.92188C3.95262 0 3.16406 0.788555 3.16406 1.75781V5C3.16406 5.32359 3.42641 5.58594 3.75 5.58594H4.10156V11.2891H3.75C3.42641 11.2891 3.16406 11.5514 3.16406 11.875C3.16406 12.1986 3.42641 12.4609 3.75 12.4609H5.03906V18.8281H0.625C0.301406 18.8281 0.0390625 19.0905 0.0390625 19.4141C0.0390625 19.7377 0.301406 20 0.625 20H19.375C19.6986 20 19.9609 19.7377 19.9609 19.4141C19.9609 19.0905 19.6986 18.8281 19.375 18.8281ZM8.125 2.22656H11.875C12.1986 2.22656 12.4609 2.48891 12.4609 2.8125C12.4609 3.13609 12.1986 3.39844 11.875 3.39844H8.125C7.80141 3.39844 7.53906 3.13609 7.53906 2.8125C7.53906 2.48891 7.80141 2.22656 8.125 2.22656ZM12.4609 16.875C12.4609 17.1986 12.1986 17.4609 11.875 17.4609H8.125C7.80141 17.4609 7.53906 17.1986 7.53906 16.875V14.375C7.53906 14.0514 7.80141 13.7891 8.125 13.7891H11.875C12.1986 13.7891 12.4609 14.0514 12.4609 14.375V16.875ZM14.7266 11.2891C14.4192 11.2891 13.5744 11.2891 13.1752 11.2891C12.8774 10.5118 12.2987 9.85047 11.5227 9.46223C12.3369 8.25629 11.475 6.60156 10 6.60156C8.52273 6.60156 7.66469 8.25863 8.47738 9.46223C7.70262 9.84984 7.12312 10.5105 6.82488 11.2891C6.29812 11.2891 5.72793 11.2891 5.27348 11.2891V5.58594H14.7266V11.2891H14.7266Z" fill="#2D3554"/>
</svg>
